<?xml version="1.0" encoding="UTF-8"?>
<svg width="160px" height="140px" viewBox="0 0 160 140" version="1.1" xmlns="http://www.w3.org/2000/svg" xmlns:xlink="http://www.w3.org/1999/xlink">
    <!-- Generator: Sketch 46.2 (44496) - http://www.bohemiancoding.com/sketch -->
    <title>Group 9</title>
    <desc>Created with Sketch.</desc>
    <defs>
        <rect id="path-1" x="0" y="0" width="77" height="92" rx="3"></rect>
        <rect id="path-2" x="0" y="0" width="77" height="92" rx="3"></rect>
        <path d="M38.8662706,41.2804842 L42.551044,44.9652575 C41.4570307,46.7022506 41.6664267,49.0248907 43.179232,50.537696 L49.141536,56.5 C50.8973773,58.2558414 53.7441586,58.2558414 55.5,56.5 C57.2558414,54.7441586 57.2558414,51.8973773 55.5,50.141536 L49.537696,44.179232 C48.0248907,42.6664267 45.7022506,42.4570307 43.9652575,43.551044 L40.3228335,39.9086199 C44.4543803,35.6734364 47,29.8839989 47,23.5 C47,10.5213084 36.4786916,0 23.5,0 C10.5213084,0 0,10.5213084 0,23.5 C0,36.4786916 10.5213084,47 23.5,47 C29.3749163,47 34.7463153,44.844186 38.8662706,41.2804842 Z" id="path-3"></path>
        <rect id="path-5" x="0" y="0" width="77" height="92" rx="5"></rect>
        <path d="M38.8662706,41.2804842 L42.551044,44.9652575 C41.4570307,46.7022506 41.6664267,49.0248907 43.179232,50.537696 L49.141536,56.5 C50.8973773,58.2558414 53.7441586,58.2558414 55.5,56.5 C57.2558414,54.7441586 57.2558414,51.8973773 55.5,50.141536 L49.537696,44.179232 C48.0248907,42.6664267 45.7022506,42.4570307 43.9652575,43.551044 L40.3228335,39.9086199 C44.4543803,35.6734364 47,29.8839989 47,23.5 C47,10.5213084 36.4786916,0 23.5,0 C10.5213084,0 0,10.5213084 0,23.5 C0,36.4786916 10.5213084,47 23.5,47 C29.3749163,47 34.7463153,44.844186 38.8662706,41.2804842 Z" id="path-6"></path>
        <path d="M38.8662706,41.2804842 L42.551044,44.9652575 C41.4570307,46.7022506 41.6664267,49.0248907 43.179232,50.537696 L49.141536,56.5 C50.8973773,58.2558414 53.7441586,58.2558414 55.5,56.5 C57.2558414,54.7441586 57.2558414,51.8973773 55.5,50.141536 L49.537696,44.179232 C48.0248907,42.6664267 45.7022506,42.4570307 43.9652575,43.551044 L40.3228335,39.9086199 C44.4543803,35.6734364 47,29.8839989 47,23.5 C47,10.5213084 36.4786916,0 23.5,0 C10.5213084,0 0,10.5213084 0,23.5 C0,36.4786916 10.5213084,47 23.5,47 C29.3749163,47 34.7463153,44.844186 38.8662706,41.2804842 Z" id="path-8"></path>
    </defs>
    <g id="Page-1" stroke="none" stroke-width="1" fill="none" fill-rule="evenodd">
        <g id="Group-9" transform="translate(1.000000, 0.000000)">
            <g id="Group-5" transform="translate(17.000000, 0.000000)">
                <g id="Group-3-Copy" transform="translate(37.000000, 0.000000)">
                    <g id="Combined-Shape-Copy-3">
                        <use fill="#DCDCDC" fill-rule="evenodd" xlink:href="#path-1"></use>
                        <rect stroke="#636363" stroke-width="3" x="1.5" y="1.5" width="74" height="89" rx="3"></rect>
                    </g>
                </g>
                <g id="Group-3" transform="translate(27.000000, 11.000000)">
                    <g id="Combined-Shape-Copy-3">
                        <use fill="#FFFFFF" fill-rule="evenodd" xlink:href="#path-2"></use>
                        <rect stroke="#636363" stroke-width="3" x="1.5" y="1.5" width="74" height="89" rx="3"></rect>
                    </g>
                    <g id="Group-Copy-2" transform="translate(10.000000, 12.000000)" stroke="#636363" stroke-width="3" fill="#F5F5F5" stroke-linecap="round" stroke-linejoin="round">
                        <path d="M0,67 L33.6792453,67" id="Path-2-Copy-8"></path>
                        <path d="M0,56 L57,56" id="Path-2-Copy-9"></path>
                        <path d="M0,45 L57,45" id="Path-2-Copy-10"></path>
                        <path d="M0,34 L57,34" id="Path-2-Copy-11"></path>
                        <path d="M0,23 L57,23" id="Path-2-Copy-12"></path>
                        <path d="M0,12 L57,12" id="Path-2-Copy-13"></path>
                        <path d="M0,12 L57,12" id="Path-2-Copy-16"></path>
                        <path d="M0,1 L15.7043694,1" id="Path-2-Copy-17"></path>
                    </g>
                </g>
                <g id="Group-4" transform="translate(0.000000, 77.000000)">
                    <mask id="mask-4" fill="white">
                        <use xlink:href="#path-3"></use>
                    </mask>
                    <g id="Combined-Shape-Copy-4">
                        <use fill-opacity="0" fill="#D8D8D8" fill-rule="evenodd" xlink:href="#path-3"></use>
                        <path stroke="#979797" stroke-width="2" d="M38.2120665,40.5241662 C34.1526393,44.035512 28.9796619,46 23.5,46 C11.0735931,46 1,35.9264069 1,23.5 C1,11.0735931 11.0735931,1 23.5,1 C35.9264069,1 46,11.0735931 46,23.5 C46,29.4516459 43.6802938,35.0348795 39.6070229,39.2103255 L38.9173245,39.9173245 L43.8226674,44.8226674 L44.4981933,44.3971997 C45.8672986,43.5348937 47.6704381,43.7261877 48.8305892,44.8863388 L54.7928932,50.8486428 C56.1582103,52.2139598 56.1582103,54.4275762 54.7928932,55.7928932 C53.4275762,57.1582103 51.2139598,57.1582103 49.8486428,55.7928932 L43.8863388,49.8305892 C42.7261877,48.6704381 42.5348937,46.8672986 43.3971997,45.4981933 L43.8226674,44.8226674 L38.9156107,39.9156107 L38.2120665,40.5241662 Z"></path>
                    </g>
                    <g id="Group-3-Copy-2" mask="url(#mask-4)">
                        <g transform="translate(10.000000, -57.000000)">
                            <g id="Combined-Shape-Copy-3">
                                <use fill="#FFFFFF" fill-rule="evenodd" xlink:href="#path-5"></use>
                                <rect stroke="#636363" stroke-width="2" x="1" y="1" width="75" height="90" rx="5"></rect>
                            </g>
                            <g id="Group-Copy-2" stroke-width="1" fill-rule="evenodd" transform="translate(10.000000, 12.000000)" stroke-linecap="round" stroke-linejoin="round">
                                <path d="M0,67.0285714 L35.5833333,67.0285714" id="Path-2-Copy-8" stroke="#636363" stroke-width="3" fill="#F5F5F5"></path>
                                <path d="M0,56.0190476 L61,56.0190476" id="Path-2-Copy-9" stroke="#636363" stroke-width="3" fill="#F5F5F5"></path>
                                <path d="M0,45.0095238 L61,45.0095238" id="Path-2-Copy-10" stroke="#636363" stroke-width="3" fill="#F5F5F5"></path>
                                <path d="M0,34 L61,34" id="Path-2-Copy-11" stroke="#636363" stroke-width="3" fill="#F5F5F5"></path>
                                <path d="M0,22.9904762 L61,22.9904762" id="Path-2-Copy-12" stroke="#636363" stroke-width="3" fill="#F5F5F5"></path>
                                <path d="M0,11.9809524 L61,11.9809524" id="Path-2-Copy-13" stroke="#636363" stroke-width="3" fill="#F5F5F5"></path>
                                <path d="M0,11.9809524 L61,11.9809524" id="Path-2-Copy-16" stroke="#636363" stroke-width="3" fill="#F5F5F5"></path>
                                <path d="M0,0.971428571 L17.296618,0.971428571" id="Path-2-Copy-17" stroke="#636363" stroke-width="3" fill="#F5F5F5"></path>
                            </g>
                        </g>
                    </g>
                    <mask id="mask-7" fill="white">
                        <use xlink:href="#path-6"></use>
                    </mask>
                    <g id="Combined-Shape-Copy-4">
                        <use fill-opacity="0" fill="#D8D8D8" fill-rule="evenodd" xlink:href="#path-6"></use>
                        <path stroke="#636363" stroke-width="3" d="M44.1852249,45.1852249 L43.8202776,45.7646611 C43.0817442,46.9372495 43.2457172,48.4828609 44.2398922,49.4770358 L50.2021962,55.4393398 C51.3722511,56.6093947 53.2692849,56.6093947 54.4393398,55.4393398 C55.6093947,54.2692849 55.6093947,52.3722511 54.4393398,51.2021962 L48.4770358,45.2398922 C47.4828609,44.2457172 45.9372495,44.0817442 44.7646611,44.8202776 L44.1852249,45.1852249 Z M38.5941704,39.5325543 L39.2491175,38.8611783 C43.232181,34.7782027 45.5,29.3198546 45.5,23.5 C45.5,11.3497355 35.6502645,1.5 23.5,1.5 C11.3497355,1.5 1.5,11.3497355 1.5,23.5 C1.5,35.6502645 11.3497355,45.5 23.5,45.5 C28.8583814,45.5 33.9155536,43.5794901 37.8849644,40.1460072 L38.5941704,39.5325543 Z M38.5941704,39.5325543 L38.9402807,39.2331739 L44.4584791,44.7513723 L44.1852249,45.1852249 L43.7513723,45.4584791 L38.2145699,39.9216767 L38.5941704,39.5325543 Z"></path>
                    </g>
                    <mask id="mask-9" fill="white">
                        <use xlink:href="#path-8"></use>
                    </mask>
                    <g id="Combined-Shape-Copy-4">
                        <use fill-opacity="0" fill="#D8D8D8" fill-rule="evenodd" xlink:href="#path-8"></use>
                        <path stroke="#FFFFFF" stroke-width="5" d="M43.7541488,39.8044014 C43.2382422,40.4442367 42.6905703,41.0616419 42.1123601,41.654356 L42.0906005,38.140853 L43.7541488,39.8044014 Z M38.6691076,44.618855 C34.2986572,47.764295 29.0310961,49.5 23.5,49.5 C9.14059651,49.5 -2.5,37.8594035 -2.5,23.5 C-2.5,9.14059651 9.14059651,-2.5 23.5,-2.5 C37.8594035,-2.5 49.5,9.14059651 49.5,23.5 C49.5,29.529348 47.4360205,35.238087 43.7541488,39.8044014 L44.5486383,40.5988909 C46.9035454,39.969486 49.4948301,40.6008322 51.305463,42.4114651 L57.267767,48.373769 C59.999919,51.1059211 59.999919,55.5356149 57.267767,58.267767 C54.5356149,60.999919 50.1059211,60.999919 47.373769,58.267767 L41.4114651,52.305463 C39.6008322,50.4948301 38.969486,47.9035454 39.5988909,45.5486383 L38.6691076,44.618855 Z"></path>
                    </g>
                </g>
            </g>
            <polygon id="Shape-Copy-2" stroke="#636363" fill="#636363" fill-rule="nonzero" stroke-linecap="round" stroke-linejoin="round" points="158 19 155 19 155 22 154 22 154 19 151 19 151 18 154 18 154 15 155 15 155 18 158 18"></polygon>
            <polygon id="Shape-Copy-5" stroke="#636363" fill="#636363" fill-rule="nonzero" stroke-linecap="round" stroke-linejoin="round" points="16 55 13 55 13 58 12 58 12 55 9 55 9 54 12 54 12 51 13 51 13 54 16 54"></polygon>
            <polygon id="Shape-Copy-6" stroke="#636363" fill="#636363" fill-rule="nonzero" stroke-linecap="round" stroke-linejoin="round" points="5 70.8571429 2.85714286 70.8571429 2.85714286 73 2.14285714 73 2.14285714 70.8571429 0 70.8571429 0 70.1428571 2.14285714 70.1428571 2.14285714 68 2.85714286 68 2.85714286 70.1428571 5 70.1428571"></polygon>
            <polygon id="Shape-Copy-4" stroke="#636363" fill="#636363" fill-rule="nonzero" stroke-linecap="round" stroke-linejoin="round" points="144 10.4285714 141.428571 10.4285714 141.428571 13 140.571429 13 140.571429 10.4285714 138 10.4285714 138 9.57142857 140.571429 9.57142857 140.571429 7 141.428571 7 141.428571 9.57142857 144 9.57142857"></polygon>
            <circle id="Oval-2" stroke="#636363" stroke-width="2" fill-opacity="0" fill="#D8D8D8" cx="141" cy="29" r="3"></circle>
            <circle id="Oval-2-Copy-3" stroke="#636363" stroke-width="2" fill-opacity="0" fill="#D8D8D8" cx="14" cy="76" r="2"></circle>
        </g>
    </g>
</svg>