<?xml version="1.0" encoding="UTF-8"?>
<svg width="169px" height="163px" viewBox="0 0 169 163" version="1.1" xmlns="http://www.w3.org/2000/svg" xmlns:xlink="http://www.w3.org/1999/xlink">
    <!-- Generator: Sketch 46.2 (44496) - http://www.bohemiancoding.com/sketch -->
    <title>Group 2</title>
    <desc>Created with Sketch.</desc>
    <defs>
        <rect id="path-1" x="28" y="18" width="115" height="140" rx="5"></rect>
        <polygon id="path-2" points="159 25.2571429 144.257143 25.2571429 144.257143 40 133.742857 40 133.742857 25.2571429 119 25.2571429 119 14.7428571 133.742857 14.7428571 133.742857 0 144.257143 0 144.257143 14.7428571 159 14.7428571"></polygon>
    </defs>
    <g id="Page-1" stroke="none" stroke-width="1" fill="none" fill-rule="evenodd">
        <g id="Artboard" transform="translate(-16.000000, -22.000000)">
            <g id="Group-2" transform="translate(17.000000, 27.000000)">
                <g id="Combined-Shape-Copy">
                    <use fill="#F9F9F9" fill-rule="evenodd" xlink:href="#path-1"></use>
                    <rect stroke="#636363" stroke-width="3" x="29.5" y="19.5" width="112" height="137" rx="5"></rect>
                </g>
                <g id="Group" transform="translate(41.000000, 36.000000)" stroke="#636363" stroke-width="3" fill="#F5F5F5" stroke-linecap="round" stroke-linejoin="round">
                    <path d="M0,103.5 L52.5,103.5" id="Path-2-Copy-8"></path>
                    <path d="M0,86.5 L90,86.5" id="Path-2-Copy-9"></path>
                    <path d="M0,69.5 L90,69.5" id="Path-2-Copy-10"></path>
                    <path d="M0,52.5 L90,52.5" id="Path-2-Copy-11"></path>
                    <path d="M0,35.5 L90,35.5" id="Path-2-Copy-12"></path>
                    <path d="M0,18.5 L90,18.5" id="Path-2-Copy-13"></path>
                    <path d="M0,18.5 L90,18.5" id="Path-2-Copy-16"></path>
                    <path d="M0,1.5 L25.5196003,1.5" id="Path-2-Copy-17"></path>
                </g>
                <g id="Shape-Copy" stroke-linecap="round" stroke-linejoin="round" fill-rule="nonzero">
                    <use fill="#636363" fill-rule="evenodd" xlink:href="#path-2"></use>
                    <path stroke="#FFFFFF" stroke-width="5" d="M146.757143,27.7571429 L146.757143,42.5 L131.242857,42.5 L131.242857,27.7571429 L116.5,27.7571429 L116.5,12.2428571 L131.242857,12.2428571 L131.242857,-2.5 L146.757143,-2.5 L146.757143,12.2428571 L161.5,12.2428571 L161.5,27.7571429 L146.757143,27.7571429 Z"></path>
                </g>
                <g id="Group-7" transform="translate(0.000000, 41.000000)" stroke="#636363">
                    <polygon id="Shape-Copy-2" fill="#636363" fill-rule="nonzero" stroke-linecap="round" stroke-linejoin="round" points="167 4 164 4 164 7 163 7 163 4 160 4 160 3 163 3 163 0 164 0 164 3 167 3"></polygon>
                    <polygon id="Shape-Copy-5" fill="#636363" fill-rule="nonzero" stroke-linecap="round" stroke-linejoin="round" points="18 10 15 10 15 13 14 13 14 10 11 10 11 9 14 9 14 6 15 6 15 9 18 9"></polygon>
                    <polygon id="Shape-Copy-6" fill="#636363" fill-rule="nonzero" stroke-linecap="round" stroke-linejoin="round" points="9 21.1428571 5.14285714 21.1428571 5.14285714 25 3.85714286 25 3.85714286 21.1428571 0 21.1428571 0 19.8571429 3.85714286 19.8571429 3.85714286 16 5.14285714 16 5.14285714 19.8571429 9 19.8571429"></polygon>
                    <polygon id="Shape-Copy-4" fill="#636363" fill-rule="nonzero" stroke-linecap="round" stroke-linejoin="round" points="165 56.4285714 162.428571 56.4285714 162.428571 59 161.571429 59 161.571429 56.4285714 159 56.4285714 159 55.5714286 161.571429 55.5714286 161.571429 53 162.428571 53 162.428571 55.5714286 165 55.5714286"></polygon>
                    <circle id="Oval-2" stroke-width="2" fill-opacity="0" fill="#D8D8D8" cx="156" cy="18" r="3"></circle>
                    <circle id="Oval-2-Copy-3" stroke-width="2" fill-opacity="0" fill="#D8D8D8" cx="11" cy="34" r="2"></circle>
                </g>
            </g>
        </g>
    </g>
</svg>