<?xml version="1.0" encoding="UTF-8"?>
<svg width="195px" height="136px" viewBox="0 0 195 136" version="1.1" xmlns="http://www.w3.org/2000/svg" xmlns:xlink="http://www.w3.org/1999/xlink">
    <!-- Generator: Sketch 46.2 (44496) - http://www.bohemiancoding.com/sketch -->
    <title>Group 8</title>
    <desc>Created with Sketch.</desc>
    <defs>
        <path d="M32.5103627,59.1366581 L95.5103627,3.13665807 L95.5103627,3.13665807 C97.2153498,1.62111398 99.7846502,1.62111398 101.489637,3.13665807 L164.489637,59.1366581 L164.489637,59.1366581 C165.450335,59.9906115 166,61.2146298 166,62.5 L166,130.979203 L166,130.979203 C166,133.464484 163.985281,135.479203 161.5,135.479203 L35.5,135.479203 L35.5,135.479203 C33.0147186,135.479203 31,133.464484 31,130.979203 L31,62.5 L31,62.5 C31,61.2146298 31.5496651,59.9906115 32.5103627,59.1366581 Z" id="path-1"></path>
        <rect id="path-2" x="0" y="0" width="110" height="134" rx="4"></rect>
        <path d="M63.7634566,63.7080451 C64.7496804,62.0630115 66.2903641,62.0630115 67.2765879,63.7080451 C90.535553,108.885528 101.930129,131.47427 101.460317,131.47427 L29.5797275,131.47427 C28.6372713,131.47427 40.0318477,108.885528 63.7634566,63.7080451 Z" id="path-3"></path>
        <path d="M129.763457,63.7080451 C130.74968,62.0630115 132.290364,62.0630115 133.276588,63.7080451 C156.535553,108.885528 167.930129,131.47427 167.460317,131.47427 L95.5797275,131.47427 C94.6372713,131.47427 106.031848,108.885528 129.763457,63.7080451 Z" id="path-4"></path>
        <path d="M32.408096,129.335245 L95.4203011,85.89404 C97.1493947,84.7019867 99.8505935,84.7019867 101.579687,85.89404 L164.591892,129.335245 C166.394723,130.578134 166.47738,132.653654 164.776512,133.971051 C163.928634,134.62777 162.747745,135 161.512199,135 L35.487789,135 C33.0092516,135 31,133.531764 31,131.720603 C31,130.817743 31.509389,129.954822 32.408096,129.335245 Z" id="path-5"></path>
    </defs>
    <g id="Page-1" stroke="none" stroke-width="1" fill="none" fill-rule="evenodd">
        <g id="Artboard-2" transform="translate(-3.000000, -32.000000)">
            <g id="Group-8" transform="translate(4.000000, 32.000000)">
                <polygon id="Shape-Copy-8" stroke="#636363" fill="#636363" fill-rule="nonzero" stroke-linecap="round" stroke-linejoin="round" points="193 75.4285714 190.428571 75.4285714 190.428571 78 189.571429 78 189.571429 75.4285714 187 75.4285714 187 74.5714286 189.571429 74.5714286 189.571429 72 190.428571 72 190.428571 74.5714286 193 74.5714286"></polygon>
                <circle id="Oval-3-Copy" stroke="#636363" fill-opacity="0" fill="#D8D8D8" cx="189.5" cy="99.5" r="1.5"></circle>
                <g id="Rectangle-2-Copy-2">
                    <use fill="#F5F5F5" fill-rule="evenodd" xlink:href="#path-1"></use>
                    <path stroke="#636363" stroke-width="3" d="M33.5069085,60.257772 C32.8664434,60.8270743 32.5,61.6430866 32.5,62.5 L32.5,130.979203 C32.5,132.636057 33.8431458,133.979203 35.5,133.979203 L161.5,133.979203 C163.156854,133.979203 164.5,132.636057 164.5,130.979203 L164.5,62.5 C164.5,61.6430866 164.133557,60.8270743 163.493092,60.257772 L100.493092,4.25777204 C99.3564335,3.24740932 97.6435665,3.24740932 96.5069085,4.25777204 L33.5069085,60.257772 Z"></path>
                </g>
                <g id="Group-2-Copy" transform="translate(43.000000, 0.000000)">
                    <g id="Combined-Shape-Copy-2">
                        <use fill="#FFFFFF" fill-rule="evenodd" xlink:href="#path-2"></use>
                        <rect stroke="#636363" stroke-width="3" x="1.5" y="1.5" width="107" height="131" rx="4"></rect>
                    </g>
                    <g id="Group-Copy" transform="translate(13.561644, 16.561798)" stroke="#636363" fill="#F5F5F5" stroke-linecap="round" stroke-linejoin="round">
                        <path d="M0,98 L50.1027397,98" id="Path-2-Copy-8" stroke-width="2"></path>
                        <path d="M0,82 L85.890411,82" id="Path-2-Copy-9" stroke-width="2"></path>
                        <path d="M0,66 L85.890411,66" id="Path-2-Copy-10" stroke-width="2"></path>
                        <path d="M0,49 L85.890411,49" id="Path-2-Copy-11" stroke-width="2"></path>
                        <path d="M0,33 L85.890411,33" id="Path-2-Copy-12" stroke-width="2"></path>
                        <path d="M0,16.5 L85.890411,16.5" id="Path-2-Copy-13"></path>
                        <path d="M0,17 L85.890411,17" id="Path-2-Copy-16" stroke-width="2"></path>
                        <path d="M0,1 L24.3543218,1" id="Path-2-Copy-17" stroke-width="2"></path>
                    </g>
                </g>
                <g id="Rectangle-2-Copy-4" transform="translate(65.500000, 96.974270) rotate(90.000000) translate(-65.500000, -96.974270) ">
                    <use fill="#F5F5F5" fill-rule="evenodd" xlink:href="#path-3"></use>
                    <path stroke="#636363" stroke-width="3" d="M65.0708446,64.4447194 C53.2189662,87.0072089 44.4475774,103.929344 38.7580736,115.208283 C35.9164171,120.841616 33.8453071,125.063816 32.5474087,127.868787 C32.1636568,128.698137 31.8487748,129.400955 31.6037471,129.97427 L99.2301534,129.97427 C98.9623969,129.400478 98.6314223,128.705968 98.2377409,127.891967 C96.8765527,125.077487 94.7726793,120.848623 91.927488,115.208283 C86.2324486,103.91837 77.5707046,86.9800235 65.9900738,64.4793307 C65.5933906,63.8176581 65.4584019,63.806121 65.0708446,64.4447194 Z"></path>
                </g>
                <g id="Rectangle-2-Copy-4" transform="translate(131.500000, 96.974270) scale(-1, 1) rotate(90.000000) translate(-131.500000, -96.974270) ">
                    <use fill="#F5F5F5" fill-rule="evenodd" xlink:href="#path-4"></use>
                    <path stroke="#636363" stroke-width="3" d="M131.070845,64.4447194 C119.218966,87.0072089 110.447577,103.929344 104.758074,115.208283 C101.916417,120.841616 99.8453071,125.063816 98.5474087,127.868787 C98.1636568,128.698137 97.8487748,129.400955 97.6037471,129.97427 L165.230153,129.97427 C164.962397,129.400478 164.631422,128.705968 164.237741,127.891967 C162.876553,125.077487 160.772679,120.848623 157.927488,115.208283 C152.232449,103.91837 143.570705,86.9800235 131.990074,64.4793307 C131.593391,63.8176581 131.458402,63.806121 131.070845,64.4447194 Z"></path>
                </g>
                <g id="Rectangle-2-Copy-3">
                    <use fill="#F5F5F5" fill-rule="evenodd" xlink:href="#path-5"></use>
                    <path stroke="#636363" stroke-width="3" d="M33.2594898,130.570206 C32.7463679,130.923957 32.5,131.341312 32.5,131.720603 C32.5,132.583478 33.754242,133.5 35.487789,133.5 L161.512199,133.5 C162.426996,133.5 163.283753,133.22994 163.857993,132.785166 C164.748863,132.095148 164.714885,131.241958 163.740498,130.570206 L100.728293,87.129001 C99.5117911,86.290333 97.488197,86.290333 96.2716948,87.129001 L33.2594898,130.570206 Z"></path>
                </g>
                <polygon id="Shape-Copy-4" stroke="#636363" fill="#636363" fill-rule="nonzero" stroke-linecap="round" stroke-linejoin="round" points="12 94.8571429 6.85714286 94.8571429 6.85714286 100 5.14285714 100 5.14285714 94.8571429 0 94.8571429 0 93.1428571 5.14285714 93.1428571 5.14285714 88 6.85714286 88 6.85714286 93.1428571 12 93.1428571"></polygon>
                <circle id="Oval-2-Copy-2" stroke="#636363" stroke-width="2" fill-opacity="0" fill="#D8D8D8" cx="17" cy="75" r="3"></circle>
                <circle id="Oval-2-Copy" stroke="#636363" stroke-width="2" fill-opacity="0" fill="#D8D8D8" cx="179" cy="85" r="4"></circle>
                <circle id="Oval-3" stroke="#636363" fill-opacity="0" fill="#D8D8D8" cx="17" cy="99" r="1"></circle>
            </g>
        </g>
    </g>
</svg>