<?xml version="1.0" encoding="UTF-8"?>
<svg width="545px" height="166px" viewBox="0 0 545 166" version="1.1" xmlns="http://www.w3.org/2000/svg" xmlns:xlink="http://www.w3.org/1999/xlink">
    <!-- Generator: Sketch 46.2 (44496) - http://www.bohemiancoding.com/sketch -->
    <title>Artboard Copy 4</title>
    <desc>Created with Sketch.</desc>
    <defs></defs>
    <g id="Page-1" stroke="none" stroke-width="1" fill="none" fill-rule="evenodd">
        <g id="Artboard-Copy-4" fill="#000000">
            <g id="np_safety-pin_1233377_000000" transform="translate(106.230901, 100.672919) rotate(-205.000000) translate(-106.230901, -100.672919) translate(62.730901, 56.172919)" fill-rule="nonzero">
                <path d="M69.3170793,0 C64.6712546,0 60.3956092,1.80861647 57.1431603,5.14308635 L46.5525384,16.0992017 C46.1823219,16.4787977 45.9028477,17.1487023 45.9028477,17.7180392 C45.9028477,18.2911488 46.1823219,18.8605238 46.5525384,19.3368767 L50.3636013,23.2444943 C52.0368415,24.9601267 54.2653507,25.9128324 56.6826662,25.9128324 C59.8403403,25.9128324 62.6278351,24.2939949 64.2103888,21.5288619 C64.7693372,20.5761562 65.0451877,19.5266556 65.1395537,18.57395 L65.1395537,17.0480965 C65.419028,14.8561113 67.2773764,13.2372738 69.4151991,13.2372738 C71.8325146,13.2372738 73.7815309,15.2394801 73.7815309,17.7142284 C73.7815309,19.9062136 72.2026939,21.811625 70.0648712,22.0981988 L68.4860341,22.0981988 C67.5568692,22.1949556 66.6277043,22.4777949 65.6041362,23.0509045 C63.2812239,24.479963 61.7930733,26.7649323 61.422894,29.5300653 C61.0526775,32.3881823 61.9818424,35.1495045 63.930896,37.1517108 L66.1594052,39.4366801 C53.8005824,51.8218539 32.8943713,68.7809678 22.4886532,77.0685545 C22.4886532,74.4970113 21.5594883,72.0184522 19.9806512,70.0200568 C19.8862853,69.9233 19.795543,69.733502 19.701177,69.6404607 L19.606811,69.5437039 C19.512445,69.3539059 19.3273368,69.2571491 19.2365946,69.1641079 C17.0987719,66.9721226 14.3112771,65.829638 11.2442895,65.829638 C8.73628746,65.829638 6.41337513,66.6855869 4.4606421,68.2114022 L4.4606421,2.28512174 C4.4606421,1.04584219 3.43707401,0.000152432909 2.23213292,0.000152432909 C1.02347518,0.000152432909 4.54747351e-13,1.04593746 4.54747351e-13,2.28512174 L4.54747351e-13,77.1696937 C4.54747351e-13,79.8380318 0.929164934,82.409575 2.50800199,84.4117812 C2.60236798,84.508538 2.69311023,84.698336 2.87821847,84.7913773 L2.87821847,84.8881341 C2.97258446,85.0779321 3.1576927,85.1746889 3.24843494,85.2677301 C5.38625762,87.4597153 8.17375243,88.6022 11.24074,88.6022 C12.169905,88.6022 13.0990699,88.5054432 14.0282348,88.2226039 C15.8865647,87.7462511 17.6504914,86.6967505 19.138642,85.3644869 C21.1820615,83.8386335 54.8167171,57.4492577 70.9869745,40.8740843 L81.5775964,30.0151449 C84.8296737,26.680675 86.5936004,22.2037205 86.5936004,17.5327951 C86.600859,8.00192745 78.8880356,0.00110513859 69.3167076,0.00110513859 L69.3170793,0 Z M16.9140353,81.0733481 C16.8196693,81.2631461 16.7289271,81.4529441 16.5438188,81.5497009 C16.5438188,81.5497009 16.5438188,81.6464577 16.4494528,81.6464577 C16.2643446,81.8362557 16.1699786,82.0260538 15.9848704,82.2195673 C14.6855261,83.551831 13.0122859,84.2217736 11.153956,84.2217736 L10.5042653,84.2217736 C8.92542828,84.0319756 7.53168087,83.3658247 6.41742629,82.2195673 L6.32306029,82.1228106 C6.2286943,82.0260538 6.04358607,81.8362557 5.95284382,81.7432145 L5.85847783,81.6464577 C5.76411184,81.4566597 5.67336959,81.3599029 5.48826135,81.1701049 C4.00011079,78.8851356 4.00011079,75.8334287 5.48826135,73.5484594 C5.58262734,73.3586614 5.67336959,73.2619046 5.85847783,73.0721066 C5.85847783,73.0721066 5.85847783,72.9753498 5.95284382,72.9753498 C6.13795206,72.7855518 6.23231805,72.5957537 6.41742629,72.4022402 C7.71677053,71.0699765 9.39001074,70.4000339 11.2483406,70.4000339 C13.1066705,70.4000339 14.7799107,71.1629416 16.0792549,72.4022402 C16.2643632,72.5920382 16.3587292,72.7818362 16.5438374,72.9753498 C16.5438374,72.9753498 16.5438374,73.0721066 16.6382034,73.0721066 C16.7325694,73.2619046 16.9176776,73.3586614 17.0084199,73.5484594 C18.3985435,75.7404447 18.3985435,78.7883407 16.9140539,81.07331 L16.9140353,81.0733481 Z M78.3299791,26.9587127 L69.3178226,36.2029112 L67.0893134,33.9179419 C66.0657453,32.8684413 65.695566,31.5361777 65.7899692,30.1071191 C65.9750774,28.7748555 66.7191341,27.62856 67.8333887,26.9624282 C68.2979712,26.6758734 68.5774454,26.6758734 68.6681876,26.6758734 L69.3178783,26.6758734 L69.9675691,26.6758734 L70.3377855,26.6758734 C74.7985205,26.1027638 78.1412843,22.2919029 78.1412843,17.7219643 C78.1412843,12.7686569 74.2395349,8.67126036 69.3142174,8.67126036 C64.8534824,8.67126036 61.0461362,12.1025251 60.5815537,16.6724638 L60.5815537,17.0520598 L60.5815537,18.3843234 C60.5815537,18.4810802 60.4871877,18.7639195 60.3020795,19.2402723 C59.5616465,20.4832674 58.1678806,21.3391782 56.6798229,21.3391782 C55.4711652,21.3391782 54.3569106,20.8628254 53.5221488,20.0069146 L51.2936396,17.7219453 L60.3057962,8.48146233 C62.7231116,6.00290323 65.8807858,4.6706396 69.3179527,4.6706396 C76.3810928,4.6706396 82.0465831,10.5766527 82.0465831,17.7217547 C82.1409491,21.149304 80.7472389,24.4837738 78.3299234,26.9585221 L78.3299791,26.9587127 Z" id="Shape"></path>
            </g>
            <text id="S" font-family="NunitoSans-ExtraLight, Nunito Sans" font-size="122" font-weight="300">
                <tspan x="0" y="123">S</tspan>
            </text>
            <text id="fetyPin" font-family="NunitoSans-ExtraLight, Nunito Sans" font-size="122" font-weight="300">
                <tspan x="173" y="123">fetyPin</tspan>
            </text>
        </g>
    </g>
</svg>