<?xml version="1.0" encoding="UTF-8"?>
<svg width="200px" height="247px" viewBox="0 0 200 247" version="1.1" xmlns="http://www.w3.org/2000/svg" xmlns:xlink="http://www.w3.org/1999/xlink">
    <!-- Generator: Sketch 46.2 (44496) - http://www.bohemiancoding.com/sketch -->
    <title>Artboard 3 Copy</title>
    <desc>Created with Sketch.</desc>
    <defs>
        <rect id="path-1" x="42.5175439" y="0" width="88.4824561" height="105.731343" rx="3.45"></rect>
        <rect id="path-2" x="31.0263158" y="12.641791" width="88.4824561" height="105.731343" rx="3.45"></rect>
        <path d="M44.662118,134.785034 L48.8963751,139.019774 C47.6392194,141.016019 47.8798412,143.685322 49.6182403,145.423919 L56.4696598,152.276119 C58.4873371,154.294027 61.7586384,154.294027 63.7763158,152.276119 C65.7939931,150.258212 65.7939931,146.986538 63.7763158,144.968631 L56.9248963,138.116431 C55.1864972,136.377834 52.5174985,136.137184 50.5214802,137.394483 L46.3358876,133.208414 C51.0835423,128.341113 54.0087719,121.687581 54.0087719,114.350746 C54.0087719,99.4349365 41.9184965,87.3432836 27.004386,87.3432836 C12.0902754,87.3432836 0,99.4349365 0,114.350746 C0,129.266556 12.0902754,141.358209 27.004386,141.358209 C33.7553863,141.358209 39.9277834,138.880632 44.662118,134.785034 L44.662118,134.785034 Z" id="path-3"></path>
        <path d="M50.5599064,127.567164 C52.7561419,123.660332 54.0087719,119.15184 54.0087719,114.350746 C54.0087719,99.4349365 41.9184965,87.3432836 27.004386,87.3432836 C20.7170067,87.3432836 14.9314891,89.4922532 10.3421053,93.0958409 L10.3421053,121.820896 C10.3421053,124.994472 12.9145043,127.567164 16.0877193,127.567164 L50.5599064,127.567164 L50.5599064,127.567164 Z" id="path-4"></path>
    </defs>
    <g id="Page-1" stroke="none" stroke-width="1" fill="none" fill-rule="evenodd">
        <g id="Artboard-3-Copy">
            <polygon id="right-cir" stroke="#636363" fill="#636363" fill-rule="nonzero" stroke-linecap="round" stroke-linejoin="round" points="189 52 186 52 186 55 185 55 185 52 182 52 182 51 185 51 185 48 186 48 186 51 189 51"></polygon>
            <polygon id="left-cir" stroke="#636363" fill="#636363" fill-rule="nonzero" stroke-linecap="round" stroke-linejoin="round" points="31 92 28 92 28 95 27 95 27 92 24 92 24 91 27 91 27 88 28 88 28 91 31 91"></polygon>
            <polygon id="left-sm-plus" stroke="#636363" fill="#636363" fill-rule="nonzero" stroke-linecap="round" stroke-linejoin="round" points="20 107.857143 17.8571429 107.857143 17.8571429 110 17.1428571 110 17.1428571 107.857143 15 107.857143 15 107.142857 17.1428571 107.142857 17.1428571 105 17.8571429 105 17.8571429 107.142857 20 107.142857"></polygon>
            <polygon id="right-plus-sm" stroke="#636363" fill="#636363" fill-rule="nonzero" stroke-linecap="round" stroke-linejoin="round" points="175 43.4285714 172.428571 43.4285714 172.428571 46 171.571429 46 171.571429 43.4285714 169 43.4285714 169 42.5714286 171.571429 42.5714286 171.571429 40 172.428571 40 172.428571 42.5714286 175 42.5714286"></polygon>
            <circle id="right-cir" stroke="#636363" stroke-width="2" fill-opacity="0" fill="#D8D8D8" cx="172" cy="62" r="3"></circle>
            <circle id="left-cir" stroke="#636363" stroke-width="2" fill-opacity="0" fill="#D8D8D8" cx="29" cy="113" r="2"></circle>
            <g id="Group" transform="translate(29.000000, 30.000000)">
                <g id="paper-back">
                    <use fill="#DCDCDC" fill-rule="evenodd" xlink:href="#path-1"></use>
                    <rect stroke="#636363" stroke-width="3" x="44.0175439" y="1.5" width="85.4824561" height="102.731343" rx="3.45"></rect>
                </g>
                <g id="paper-front">
                    <use fill="#FFFFFF" fill-rule="evenodd" xlink:href="#path-2"></use>
                    <rect stroke="#636363" stroke-width="3" x="32.5263158" y="14.141791" width="85.4824561" height="102.731343" rx="3.45"></rect>
                </g>
                <path d="M42.5175439,103.5 L81.2191327,103.5" id="ln-8" stroke="#636363" stroke-width="3" fill="#F5F5F5" stroke-linecap="round" stroke-linejoin="round"></path>
                <path d="M42.5175439,90.5 L108.017544,90.5" id="ln-7" stroke="#636363" stroke-width="3" fill="#F5F5F5" stroke-linecap="round" stroke-linejoin="round"></path>
                <path d="M42.5175439,78.5 L108.017544,78.5" id="ln-6" stroke="#636363" stroke-width="3" fill="#F5F5F5" stroke-linecap="round" stroke-linejoin="round"></path>
                <path d="M42.5175439,65.5 L108.017544,65.5" id="ln-5" stroke="#636363" stroke-width="3" fill="#F5F5F5" stroke-linecap="round" stroke-linejoin="round"></path>
                <path d="M42.5175439,52.5 L108.017544,52.5" id="ln-4" stroke="#636363" stroke-width="3" fill="#F5F5F5" stroke-linecap="round" stroke-linejoin="round"></path>
                <path d="M42.5175439,40.5 L108.017544,40.5" id="ln-3" stroke="#636363" stroke-width="3" fill="#F5F5F5" stroke-linecap="round" stroke-linejoin="round"></path>
                <path d="M42.5175439,27.5 L60.5637929,27.5" id="ln-1" stroke="#636363" stroke-width="3" fill="#F5F5F5" stroke-linecap="round" stroke-linejoin="round"></path>
                <g id="mag-glass">
                    <use fill="#FFFFFF" fill-rule="evenodd" xlink:href="#path-3"></use>
                    <path stroke="#636363" stroke-width="2" d="M44.0078712,134.028753 C39.3162472,138.087402 33.3373389,140.358209 27.004386,140.358209 C12.6425857,140.358209 1,128.714297 1,114.350746 C1,99.9871957 12.6425857,88.3432836 27.004386,88.3432836 C41.3661863,88.3432836 53.0087719,99.9871957 53.0087719,114.350746 C53.0087719,121.230062 50.3276512,127.683909 45.6200372,132.51016 L44.9304576,133.217118 L50.3788803,138.666161 L51.0544594,138.240612 C52.6863152,137.2127 54.8350986,137.440689 56.2177492,138.823497 L63.0691687,145.675697 C64.6963755,147.30309 64.6963755,149.941661 63.0691687,151.569053 C61.4420249,153.196382 58.8039507,153.196382 57.1768068,151.569053 L50.3253873,144.716853 C48.9426847,143.333993 48.7147043,141.184802 49.7425582,139.552666 L50.1679439,138.877193 L44.7114611,133.420089 L44.0078712,134.028753 Z"></path>
                </g>
                <g id="Combined-Shape">
                    <use fill-opacity="0" fill="#D8D8D8" fill-rule="evenodd" xlink:href="#path-4"></use>
                    <path stroke="#636363" stroke-width="2" d="M49.9674281,126.567164 C51.9536291,122.841324 53.0087719,118.67375 53.0087719,114.350746 C53.0087719,99.9871957 41.3661863,88.3432836 27.004386,88.3432836 C21.2672514,88.3432836 15.8165929,90.2056076 11.3421053,93.5877197 L11.3421053,121.820896 C11.3421053,124.442213 13.4668145,126.567164 16.0877193,126.567164 L49.9674281,126.567164 Z"></path>
                </g>
                <path d="M25.2807018,113.743284 L52.2850877,113.743284" id="ln-b" stroke="#636363" stroke-width="3.45" fill="#F5F5F5" stroke-linecap="round" stroke-linejoin="round"></path>
                <path d="M25.2807018,99.9714286 L47.6885965,99.9714286" id="ln-a" stroke="#636363" stroke-width="3" fill="#F5F5F5" stroke-linecap="round" stroke-linejoin="round"></path>
            </g>
            <text id="Manage-Form" font-family="NunitoSans-ExtraLight, Nunito Sans" font-size="22" font-weight="300" fill="#000000">
                <tspan x="41" y="220">Manage Form</tspan>
            </text>
        </g>
    </g>
</svg>