<?xml version="1.0" encoding="UTF-8"?>
<svg width="200px" height="247px" viewBox="0 0 200 247" version="1.1" xmlns="http://www.w3.org/2000/svg" xmlns:xlink="http://www.w3.org/1999/xlink">
    <!-- Generator: Sketch 46.2 (44496) - http://www.bohemiancoding.com/sketch -->
    <title>Artboard 2 Copy</title>
    <desc>Created with Sketch.</desc>
    <defs>
        <path d="M36.5103627,91.1366581 L99.5103627,35.1366581 L99.5103627,35.1366581 C101.21535,33.621114 103.78465,33.621114 105.489637,35.1366581 L168.489637,91.1366581 L168.489637,91.1366581 C169.450335,91.9906115 170,93.2146298 170,94.5 L170,162.979203 L170,162.979203 C170,165.464484 167.985281,167.479203 165.5,167.479203 L39.5,167.479203 L39.5,167.479203 C37.0147186,167.479203 35,165.464484 35,162.979203 L35,94.5 L35,94.5 C35,93.2146298 35.5496651,91.9906115 36.5103627,91.1366581 Z" id="path-1"></path>
        <rect id="path-2" x="47" y="32" width="110" height="134" rx="4"></rect>
        <path d="M67.7634566,95.7080451 C68.7496804,94.0630115 70.2903641,94.0630115 71.2765879,95.7080451 C94.535553,140.885528 105.930129,163.47427 105.460317,163.47427 L33.5797275,163.47427 C32.6372713,163.47427 44.0318477,140.885528 67.7634566,95.7080451 Z" id="path-3"></path>
        <path d="M133.763457,95.7080451 C134.74968,94.0630115 136.290364,94.0630115 137.276588,95.7080451 C160.535553,140.885528 171.930129,163.47427 171.460317,163.47427 L99.5797275,163.47427 C98.6372713,163.47427 110.031848,140.885528 133.763457,95.7080451 Z" id="path-4"></path>
        <path d="M36.408096,161.335245 L99.4203011,117.89404 C101.149395,116.701987 103.850593,116.701987 105.579687,117.89404 L168.591892,161.335245 C170.394723,162.578134 170.47738,164.653654 168.776512,165.971051 C167.928634,166.62777 166.747745,167 165.512199,167 L39.487789,167 C37.0092516,167 35,165.531764 35,163.720603 C35,162.817743 35.509389,161.954822 36.408096,161.335245 Z" id="path-5"></path>
    </defs>
    <g id="Page-1" stroke="none" stroke-width="1" fill="none" fill-rule="evenodd">
        <g id="Artboard-2-Copy">
            <polygon id="Right-Plus" stroke="#636363" fill="#636363" fill-rule="nonzero" stroke-linecap="round" stroke-linejoin="round" points="197 107.428571 194.428571 107.428571 194.428571 110 193.571429 110 193.571429 107.428571 191 107.428571 191 106.571429 193.571429 106.571429 193.571429 104 194.428571 104 194.428571 106.571429 197 106.571429"></polygon>
            <circle id="Right-Sm-Cir" stroke="#636363" fill-opacity="0" fill="#D8D8D8" cx="193.5" cy="131.5" r="1.5"></circle>
            <g id="Env-Background">
                <use fill="#F5F5F5" fill-rule="evenodd" xlink:href="#path-1"></use>
                <path stroke="#636363" stroke-width="3" d="M37.5069085,92.257772 C36.8664434,92.8270743 36.5,93.6430866 36.5,94.5 L36.5,162.979203 C36.5,164.636057 37.8431458,165.979203 39.5,165.979203 L165.5,165.979203 C167.156854,165.979203 168.5,164.636057 168.5,162.979203 L168.5,94.5 C168.5,93.6430866 168.133557,92.8270743 167.493092,92.257772 L104.493092,36.257772 C103.356433,35.2474093 101.643567,35.2474093 100.506908,36.257772 L37.5069085,92.257772 Z"></path>
            </g>
            <g id="Paper">
                <use fill="#FFFFFF" fill-rule="evenodd" xlink:href="#path-2"></use>
                <rect stroke="#636363" stroke-width="3" x="48.5" y="33.5" width="107" height="131" rx="4"></rect>
            </g>
            <path d="M60.5616438,146.561798 L110.664384,146.561798" id="Ln-7" stroke="#636363" stroke-width="2" fill="#F5F5F5" stroke-linecap="round" stroke-linejoin="round"></path>
            <path d="M60.5616438,130.561798 L146.452055,130.561798" id="Ln-6" stroke="#636363" stroke-width="2" fill="#F5F5F5" stroke-linecap="round" stroke-linejoin="round"></path>
            <path d="M60.5616438,114.561798 L146.452055,114.561798" id="Ln-5" stroke="#636363" stroke-width="2" fill="#F5F5F5" stroke-linecap="round" stroke-linejoin="round"></path>
            <path d="M60.5616438,97.5617978 L146.452055,97.5617978" id="Ln-4" stroke="#636363" stroke-width="2" fill="#F5F5F5" stroke-linecap="round" stroke-linejoin="round"></path>
            <path d="M60.5616438,81.5617978 L146.452055,81.5617978" id="Ln-3" stroke="#636363" stroke-width="2" fill="#F5F5F5" stroke-linecap="round" stroke-linejoin="round"></path>
            <path d="M60.5616438,65.5617978 L146.452055,65.5617978" id="Ln-2" stroke="#636363" stroke-width="2" fill="#F5F5F5" stroke-linecap="round" stroke-linejoin="round"></path>
            <path d="M60.5616438,49.5617978 L84.9159656,49.5617978" id="Ln-1" stroke="#636363" stroke-width="2" fill="#F5F5F5" stroke-linecap="round" stroke-linejoin="round"></path>
            <g id="Env-Left" transform="translate(69.500000, 128.974270) rotate(90.000000) translate(-69.500000, -128.974270) ">
                <use fill="#F5F5F5" fill-rule="evenodd" xlink:href="#path-3"></use>
                <path stroke="#636363" stroke-width="3" d="M69.0708446,96.4447194 C57.2189662,119.007209 48.4475774,135.929344 42.7580736,147.208283 C39.9164171,152.841616 37.8453071,157.063816 36.5474087,159.868787 C36.1636568,160.698137 35.8487748,161.400955 35.6037471,161.97427 L103.230153,161.97427 C102.962397,161.400478 102.631422,160.705968 102.237741,159.891967 C100.876553,157.077487 98.7726793,152.848623 95.927488,147.208283 C90.2324486,135.91837 81.5707046,118.980023 69.9900738,96.4793307 C69.5933906,95.8176581 69.4584019,95.806121 69.0708446,96.4447194 Z"></path>
            </g>
            <g id="Env-Right" transform="translate(135.500000, 128.974270) scale(-1, 1) rotate(90.000000) translate(-135.500000, -128.974270) ">
                <use fill="#F5F5F5" fill-rule="evenodd" xlink:href="#path-4"></use>
                <path stroke="#636363" stroke-width="3" d="M135.070845,96.4447194 C123.218966,119.007209 114.447577,135.929344 108.758074,147.208283 C105.916417,152.841616 103.845307,157.063816 102.547409,159.868787 C102.163657,160.698137 101.848775,161.400955 101.603747,161.97427 L169.230153,161.97427 C168.962397,161.400478 168.631422,160.705968 168.237741,159.891967 C166.876553,157.077487 164.772679,152.848623 161.927488,147.208283 C156.232449,135.91837 147.570705,118.980023 135.990074,96.4793307 C135.593391,95.8176581 135.458402,95.806121 135.070845,96.4447194 Z"></path>
            </g>
            <g id="Env-Center">
                <use fill="#F5F5F5" fill-rule="evenodd" xlink:href="#path-5"></use>
                <path stroke="#636363" stroke-width="3" d="M37.2594898,162.570206 C36.7463679,162.923957 36.5,163.341312 36.5,163.720603 C36.5,164.583478 37.754242,165.5 39.487789,165.5 L165.512199,165.5 C166.426996,165.5 167.283753,165.22994 167.857993,164.785166 C168.748863,164.095148 168.714885,163.241958 167.740498,162.570206 L104.728293,119.129001 C103.511791,118.290333 101.488197,118.290333 100.271695,119.129001 L37.2594898,162.570206 Z"></path>
            </g>
            <polygon id="Left-Plus" stroke="#636363" fill="#636363" fill-rule="nonzero" stroke-linecap="round" stroke-linejoin="round" points="16 126.857143 10.8571429 126.857143 10.8571429 132 9.14285714 132 9.14285714 126.857143 4 126.857143 4 125.142857 9.14285714 125.142857 9.14285714 120 10.8571429 120 10.8571429 125.142857 16 125.142857"></polygon>
            <circle id="Left-Cir" stroke="#636363" stroke-width="2" fill-opacity="0" fill="#D8D8D8" cx="21" cy="107" r="3"></circle>
            <circle id="Right-Circle" stroke="#636363" stroke-width="2" fill-opacity="0" fill="#D8D8D8" cx="183" cy="117" r="4"></circle>
            <circle id="Left-Sm-Cir" stroke="#636363" fill-opacity="0" fill="#D8D8D8" cx="21" cy="131" r="1"></circle>
            <text id="Send-Form-Copy-2" font-family="NunitoSans-ExtraLight, Nunito Sans" font-size="22" font-weight="300" fill="#000000">
                <tspan x="48" y="220">Send Form</tspan>
            </text>
        </g>
    </g>
</svg>